<svg width="34" height="35" viewBox="0 0 34 35" fill="none" xmlns="http://www.w3.org/2000/svg">
<mask id="mask0_133_710" style="mask-type:alpha" maskUnits="userSpaceOnUse" x="0" y="0" width="34" height="35">
<path d="M17 34.5C26.3888 34.5 34 26.8888 34 17.5C34 8.11116 26.3888 0.5 17 0.5C7.61116 0.5 0 8.11116 0 17.5C0 26.8888 7.61116 34.5 17 34.5Z" fill="white"/>
</mask>
<g mask="url(#mask0_133_710)">
<path d="M38.018 0.5H-3.94111C-4.88 0.5 -5.64111 1.26112 -5.64111 2.2V32.8C-5.64111 33.7389 -4.88 34.5 -3.94111 34.5H38.018C38.9569 34.5 39.718 33.7389 39.718 32.8V2.2C39.718 1.26112 38.9569 0.5 38.018 0.5Z" fill="black"/>
<mask id="mask1_133_710" style="mask-type:alpha" maskUnits="userSpaceOnUse" x="-6" y="0" width="46" height="35">
<path d="M38.018 0.5H-3.94111C-4.88 0.5 -5.64111 1.26112 -5.64111 2.2V32.8C-5.64111 33.7389 -4.88 34.5 -3.94111 34.5H38.018C38.9569 34.5 39.718 33.7389 39.718 32.8V2.2C39.718 1.26112 38.9569 0.5 38.018 0.5Z" fill="white"/>
</mask>
<g mask="url(#mask1_133_710)">
<mask id="mask2_133_710" style="mask-type:alpha" maskUnits="userSpaceOnUse" x="-6" y="0" width="46" height="35">
<path d="M39.718 0.5H-5.64111V34.5H39.718V0.5Z" fill="white"/>
</mask>
<g mask="url(#mask2_133_710)">
<path d="M39.718 0.5H-5.64111V34.5H39.718V0.5Z" fill="#2E42A5"/>
<mask id="mask3_133_710" style="mask-type:alpha" maskUnits="userSpaceOnUse" x="-6" y="0" width="46" height="35">
<path d="M39.718 0.5H-5.64111V34.5H39.718V0.5Z" fill="white"/>
</mask>
<g mask="url(#mask3_133_710)">
<path d="M19.8734 0.5H-5.64111V20.3333H19.8734V0.5Z" fill="#2B409A"/>
<mask id="mask4_133_710" style="mask-type:alpha" maskUnits="userSpaceOnUse" x="-6" y="0" width="26" height="21">
<path d="M19.8734 0.5H-5.64111V20.3333H19.8734V0.5Z" fill="white"/>
</mask>
<g mask="url(#mask4_133_710)">
<path d="M-8.48242 18.9164L-2.86789 21.3774L20.0005 3.17572L22.962 -0.481455L16.9581 -1.304L7.63061 6.53964L0.122969 11.8244L-8.48242 18.9164Z" fill="#F7FCFF"/>
<path d="M-7.71387 20.6407L-4.85352 22.0688L21.8984 -0.821251H17.8822L-7.71387 20.6407Z" fill="#F50100"/>
<path d="M22.7144 18.9164L17.0998 21.3774L-5.76853 3.17572L-8.73006 -0.481455L-2.72613 -1.304L6.60133 6.53964L14.109 11.8244L22.7144 18.9164Z" fill="#F7FCFF"/>
<path d="M22.5229 20.1539L19.6626 21.582L8.27134 11.7816L4.89408 10.6866L-9.01486 -0.468975H-4.9986L8.90252 10.4218L12.595 11.7348L22.5229 20.1539Z" fill="#F50100"/>
<path d="M9.57496 -0.5625L9.57423 7.9375H20.9366V12.8958H9.57423L9.57496 21.3958H4.61381L4.61308 12.8958H-6.7041V7.9375H4.61308L4.61381 -0.5625H9.57496Z" fill="#F50100" stroke="#F7FCFF" stroke-width="1.5"/>
</g>
</g>
<mask id="mask5_133_710" style="mask-type:alpha" maskUnits="userSpaceOnUse" x="-6" y="0" width="46" height="35">
<path d="M39.718 0.5H-5.64111V34.5H39.718V0.5Z" fill="white"/>
</mask>
<g mask="url(#mask5_133_710)">
<path d="M7.11601 29.5415L5.27096 31.2456L5.45368 28.7414L2.97021 28.3622L5.04311 26.9436L3.79134 24.7667L6.19349 25.5019L7.11601 23.1665L8.03854 25.5019L10.4407 24.7667L9.18891 26.9436L11.2618 28.3622L8.77835 28.7414L8.96107 31.2456L7.11601 29.5415Z" fill="#F7FCFF"/>
<path d="M25.5432 18.9165L24.3131 20.0526L24.4349 18.3831L22.7793 18.1303L24.1612 17.1846L23.3267 15.7333L24.9281 16.2235L25.5432 14.6665L26.1582 16.2235L27.7596 15.7333L26.9251 17.1846L28.307 18.1303L26.6514 18.3831L26.7732 20.0526L25.5432 18.9165Z" fill="#F7FCFF"/>
<path d="M28.3781 7.58325L27.1481 8.71933L27.2699 7.04986L25.6143 6.79706L26.9962 5.85135L26.1617 4.40003L27.7631 4.89021L28.3781 3.33325L28.9931 4.89021L30.5946 4.40003L29.7601 5.85135L31.142 6.79706L29.4863 7.04986L29.6082 8.71933L28.3781 7.58325Z" fill="#F7FCFF"/>
<path d="M35.4655 13.25L34.2355 14.3861L34.3573 12.7166L32.7017 12.4638L34.0836 11.5181L33.2491 10.0668L34.8505 10.557L35.4655 9L36.0805 10.557L37.682 10.0668L36.8475 11.5181L38.2294 12.4638L36.5737 12.7166L36.6956 14.3861L35.4655 13.25Z" fill="#F7FCFF"/>
<path d="M29.7956 31.6665L28.5656 32.8026L28.6874 31.1331L27.0317 30.8803L28.4137 29.9346L27.5792 28.4833L29.1806 28.9735L29.7956 27.4165L30.4106 28.9735L32.0121 28.4833L31.1775 29.9346L32.5595 30.8803L30.9038 31.1331L31.0256 32.8026L29.7956 31.6665Z" fill="#F7FCFF"/>
<path d="M34.7565 20.6875L33.5068 21.3442L33.7454 19.9533L32.7344 18.9683L34.1316 18.7654L34.7565 17.5L35.3814 18.7654L36.7787 18.9683L35.7676 19.9533L36.0063 21.3442L34.7565 20.6875Z" fill="#F7FCFF"/>
</g>
</g>
</g>
<mask id="mask6_133_710" style="mask-type:alpha" maskUnits="userSpaceOnUse" x="-6" y="0" width="46" height="35">
<path d="M38.018 0.5H-3.94111C-4.88 0.5 -5.64111 1.26112 -5.64111 2.2V32.8C-5.64111 33.7389 -4.88 34.5 -3.94111 34.5H38.018C38.9569 34.5 39.718 33.7389 39.718 32.8V2.2C39.718 1.26112 38.9569 0.5 38.018 0.5Z" fill="white"/>
</mask>
<g mask="url(#mask6_133_710)">
<path d="M37.309 1.20825H-3.23262C-4.1715 1.20825 -4.93262 1.96937 -4.93262 2.90825V32.0916C-4.93262 33.0305 -4.1715 33.7916 -3.23262 33.7916H37.309C38.2479 33.7916 39.009 33.0305 39.009 32.0916V2.90825C39.009 1.96937 38.2479 1.20825 37.309 1.20825Z" stroke="black" stroke-opacity="0.1"/>
</g>
</g>
</svg>
