<svg width="34" height="35" viewBox="0 0 34 35" fill="none" xmlns="http://www.w3.org/2000/svg">
<g clip-path="url(#clip0_133_460)">
<mask id="mask0_133_460" style="mask-type:alpha" maskUnits="userSpaceOnUse" x="0" y="0" width="34" height="35">
<path d="M17 34.5C26.3888 34.5 34 26.8888 34 17.5C34 8.11116 26.3888 0.5 17 0.5C7.61116 0.5 0 8.11116 0 17.5C0 26.8888 7.61116 34.5 17 34.5Z" fill="white"/>
</mask>
<g mask="url(#mask0_133_460)">
<mask id="mask1_133_460" style="mask-type:alpha" maskUnits="userSpaceOnUse" x="-6" y="0" width="46" height="35">
<path d="M39.6668 0.5H-5.6665V34.5H39.6668V0.5Z" fill="white"/>
</mask>
<g mask="url(#mask1_133_460)">
<path d="M5.66699 0.5H39.667V34.5H5.66699V0.5Z" fill="#EF0000"/>
<path d="M-5.6665 0.5H11.3335V34.5H-5.6665V0.5Z" fill="#2F8D00"/>
<mask id="mask2_133_460" style="mask-type:alpha" maskUnits="userSpaceOnUse" x="0" y="6" width="23" height="23">
<path d="M11.1986 28.5602C5.16291 28.5602 0.27002 23.6083 0.27002 17.4999C0.27002 11.3915 5.16291 6.4397 11.1986 6.4397C17.2343 6.4397 22.1272 11.3915 22.1272 17.4999C22.1272 23.6083 17.2343 28.5602 11.1986 28.5602Z" fill="white"/>
</mask>
<g mask="url(#mask2_133_460)">
<path d="M10.5239 6.1665H11.9406V9.9898H10.5239V6.1665Z" fill="#FFE017"/>
</g>
<mask id="mask3_133_460" style="mask-type:alpha" maskUnits="userSpaceOnUse" x="0" y="6" width="23" height="23">
<path d="M11.1986 28.5602C5.16291 28.5602 0.27002 23.6083 0.27002 17.4999C0.27002 11.3915 5.16291 6.4397 11.1986 6.4397C17.2343 6.4397 22.1272 11.3915 22.1272 17.4999C22.1272 23.6083 17.2343 28.5602 11.1986 28.5602Z" fill="white"/>
</mask>
<g mask="url(#mask3_133_460)">
<path d="M10.5239 25.283H11.9406V28.8332H10.5239V25.283Z" fill="#FFE017"/>
</g>
<mask id="mask4_133_460" style="mask-type:alpha" maskUnits="userSpaceOnUse" x="0" y="6" width="23" height="23">
<path d="M11.1986 28.5602C5.16291 28.5602 0.27002 23.6083 0.27002 17.4999C0.27002 11.3915 5.16291 6.4397 11.1986 6.4397C17.2343 6.4397 22.1272 11.3915 22.1272 17.4999C22.1272 23.6083 17.2343 28.5602 11.1986 28.5602Z" fill="white"/>
</mask>
<g mask="url(#mask4_133_460)">
<path d="M0.445881 18.072L0.0498047 17.0558C4.42048 15.3109 7.71928 14.1856 9.95759 13.6785C13.2416 12.9345 16.8499 12.384 20.7829 12.0266L20.8794 13.1146C16.9916 13.4679 13.4295 14.0113 10.1934 14.7445C8.02171 15.2365 4.76874 16.3462 0.445881 18.072Z" fill="#FFE017"/>
</g>
<mask id="mask5_133_460" style="mask-type:alpha" maskUnits="userSpaceOnUse" x="0" y="6" width="23" height="23">
<path d="M11.1986 28.5602C5.16291 28.5602 0.27002 23.6083 0.27002 17.4999C0.27002 11.3915 5.16291 6.4397 11.1986 6.4397C17.2343 6.4397 22.1272 11.3915 22.1272 17.4999C22.1272 23.6083 17.2343 28.5602 11.1986 28.5602Z" fill="white"/>
</mask>
<g mask="url(#mask5_133_460)">
<path d="M21.4495 11.357L21.1281 12.3999C17.8248 11.357 15.134 10.9088 13.0656 11.0476L12.9941 9.95764C15.2149 9.80857 18.03 10.2775 21.4495 11.357Z" fill="#FFE017"/>
</g>
<mask id="mask6_133_460" style="mask-type:alpha" maskUnits="userSpaceOnUse" x="0" y="6" width="23" height="23">
<path d="M11.1986 28.5602C5.16291 28.5602 0.27002 23.6083 0.27002 17.4999C0.27002 11.3915 5.16291 6.4397 11.1986 6.4397C17.2343 6.4397 22.1272 11.3915 22.1272 17.4999C22.1272 23.6083 17.2343 28.5602 11.1986 28.5602Z" fill="white"/>
</mask>
<g mask="url(#mask6_133_460)">
<path d="M22.5928 17.188L21.9822 18.0887C20.2982 16.9196 18.2236 16.3324 15.7441 16.3324V15.24C18.4321 15.24 20.7197 15.8875 22.5928 17.188Z" fill="#FFE017"/>
</g>
<mask id="mask7_133_460" style="mask-type:alpha" maskUnits="userSpaceOnUse" x="0" y="6" width="23" height="23">
<path d="M11.1986 28.5602C5.16291 28.5602 0.27002 23.6083 0.27002 17.4999C0.27002 11.3915 5.16291 6.4397 11.1986 6.4397C17.2343 6.4397 22.1272 11.3915 22.1272 17.4999C22.1272 23.6083 17.2343 28.5602 11.1986 28.5602Z" fill="white"/>
</mask>
<g mask="url(#mask7_133_460)">
<path d="M21.6779 17.5149L21.9569 18.5701C18.3265 19.5535 14.9181 20.1114 11.7314 20.2428C8.52271 20.3751 4.78291 19.8152 0.508789 18.5673L0.807966 17.5177C4.97821 18.7353 8.60578 19.2784 11.6875 19.1513C14.7911 19.0234 18.1214 18.4782 21.6779 17.5149Z" fill="#FFE017"/>
</g>
<mask id="mask8_133_460" style="mask-type:alpha" maskUnits="userSpaceOnUse" x="0" y="6" width="23" height="23">
<path d="M11.1986 28.5602C5.16291 28.5602 0.27002 23.6083 0.27002 17.4999C0.27002 11.3915 5.16291 6.4397 11.1986 6.4397C17.2343 6.4397 22.1272 11.3915 22.1272 17.4999C22.1272 23.6083 17.2343 28.5602 11.1986 28.5602Z" fill="white"/>
</mask>
<g mask="url(#mask8_133_460)">
<path d="M21.2666 22.6508L19.5605 24.3999C16.3182 21.1606 13.4637 18.8444 11.0146 17.4527C8.52365 16.0372 5.27525 14.5999 1.27441 13.1466L2.09487 10.8333C6.2137 12.3295 9.58159 13.8197 12.2036 15.3096C14.8674 16.8233 17.8826 19.2699 21.2666 22.6508Z" fill="#FFE017"/>
</g>
<mask id="mask9_133_460" style="mask-type:alpha" maskUnits="userSpaceOnUse" x="0" y="6" width="23" height="23">
<path d="M11.1986 28.5602C5.16291 28.5602 0.27002 23.6083 0.27002 17.4999C0.27002 11.3915 5.16291 6.4397 11.1986 6.4397C17.2343 6.4397 22.1272 11.3915 22.1272 17.4999C22.1272 23.6083 17.2343 28.5602 11.1986 28.5602Z" fill="white"/>
</mask>
<g mask="url(#mask9_133_460)">
<path d="M2.06621 23.6416L1.42041 22.7663C1.51059 22.6981 1.67151 22.5845 1.89322 22.4405C2.25928 22.2026 2.66578 21.9652 3.10314 21.7433C4.30774 21.1323 5.51606 20.7508 6.66855 20.7157C6.72491 20.714 6.78104 20.7131 6.83692 20.7131V21.8055C6.7919 21.8055 6.74658 21.8062 6.70096 21.8076C5.72974 21.8371 4.66318 22.1739 3.5868 22.7199C3.1856 22.9234 2.81178 23.1418 2.4763 23.3597C2.35952 23.4356 2.2562 23.5057 2.16766 23.5683C2.11604 23.6047 2.08179 23.6298 2.06621 23.6416Z" fill="#FFE017"/>
</g>
<mask id="mask10_133_460" style="mask-type:alpha" maskUnits="userSpaceOnUse" x="0" y="6" width="23" height="23">
<path d="M11.1986 28.5602C5.16291 28.5602 0.27002 23.6083 0.27002 17.4999C0.27002 11.3915 5.16291 6.4397 11.1986 6.4397C17.2343 6.4397 22.1272 11.3915 22.1272 17.4999C22.1272 23.6083 17.2343 28.5602 11.1986 28.5602Z" fill="white"/>
</mask>
<g mask="url(#mask10_133_460)">
<path d="M2.56738 24.0202L2.8392 22.9631C6.4377 23.9107 9.21194 24.383 11.1481 24.383C13.077 24.383 15.948 23.826 19.7424 22.708L20.0441 23.7568C16.1599 24.9012 13.2008 25.4754 11.1481 25.4754C9.10258 25.4754 6.24696 24.9893 2.56738 24.0202Z" fill="#FFE017"/>
</g>
<mask id="mask11_133_460" style="mask-type:alpha" maskUnits="userSpaceOnUse" x="0" y="6" width="23" height="23">
<path d="M11.1986 28.5602C5.16291 28.5602 0.27002 23.6083 0.27002 17.4999C0.27002 11.3915 5.16291 6.4397 11.1986 6.4397C17.2343 6.4397 22.1272 11.3915 22.1272 17.4999C22.1272 23.6083 17.2343 28.5602 11.1986 28.5602Z" fill="white"/>
</mask>
<g mask="url(#mask11_133_460)">
<path d="M1.16553 14.2338L2.87555 12.4885L5.37926 15.0012L3.66923 16.7464L1.16553 14.2338Z" fill="#FFE017"/>
</g>
<mask id="mask12_133_460" style="mask-type:alpha" maskUnits="userSpaceOnUse" x="0" y="6" width="23" height="23">
<path d="M11.1986 28.5602C5.16291 28.5602 0.27002 23.6083 0.27002 17.4999C0.27002 11.3915 5.16291 6.4397 11.1986 6.4397C17.2343 6.4397 22.1272 11.3915 22.1272 17.4999C22.1272 23.6083 17.2343 28.5602 11.1986 28.5602Z" fill="white"/>
</mask>
<g mask="url(#mask12_133_460)">
<path d="M15.3511 22.951L16.623 20.8572L20.5948 23.3285L19.3229 25.4223L15.3511 22.951Z" fill="#FFE017"/>
</g>
<path d="M11.1986 6.4397C17.2343 6.4397 22.1272 11.3915 22.1272 17.4999C22.1272 23.6083 17.2343 28.5602 11.1986 28.5602C5.16291 28.5602 0.27002 23.6083 0.27002 17.4999C0.27002 11.3915 5.16291 6.4397 11.1986 6.4397ZM11.3335 8.07825C6.11749 8.07825 1.88907 12.3576 1.88907 17.6365C1.88907 22.9154 6.11749 27.1947 11.3335 27.1947C16.5495 27.1947 20.778 22.9154 20.778 17.6365C20.778 12.3576 16.5495 8.07825 11.3335 8.07825Z" fill="#F9E813"/>
<path d="M5.18066 10.6792V19.5485C5.76452 23.0591 7.73151 24.8145 11.0816 24.8145C14.4318 24.8145 16.3987 23.0591 16.9826 19.5485V10.6792H5.18066Z" fill="white"/>
<path d="M4.37109 9.85986H17.7921V19.6169L17.7808 19.6845C17.1325 23.5827 14.8342 25.6337 11.0816 25.6337C7.32899 25.6337 5.03064 23.5827 4.38232 19.6845L4.37109 19.6169V9.85986Z" fill="#C51918"/>
<path d="M7.44092 12.8401H14.7222V19.1314C14.362 21.2973 13.1484 22.3802 11.0816 22.3802C9.01468 22.3802 7.80113 21.2973 7.44092 19.1314V12.8401Z" fill="#F7FCFF"/>
<path d="M5.66699 10.5361H6.69109V11.2189H5.66699V10.5361Z" fill="#F9E813"/>
<path d="M5.12744 10.8093H7.01633V11.1507H5.12744V10.8093Z" fill="#060101"/>
<path d="M5.12744 11.0823H6.15154V11.4236H5.12744V11.0823Z" fill="#F9E813"/>
<path d="M6.20703 11.0823H7.23113V11.4236H6.20703V11.0823Z" fill="#F9E813"/>
<path d="M5.12744 11.9016H5.81017V12.9257H5.12744V11.9016Z" fill="#F9E813"/>
<path d="M6.47656 11.9016H7.15929V12.9257H6.47656V11.9016Z" fill="#F9E813"/>
<path d="M5.93701 11.9016H6.27838V12.9257H5.93701V11.9016Z" fill="#F9E813"/>
<path d="M5.12744 11.6284H7.01633V11.9698H5.12744V11.6284Z" fill="#060101"/>
<path d="M5.12744 12.4478H7.01633V12.7891H5.12744V12.4478Z" fill="#060101"/>
<path d="M5.39746 11.3555H5.73883V11.6968H5.39746V11.3555Z" fill="#F9E813"/>
<path d="M6.47656 11.3555H6.81793V11.6968H6.47656V11.3555Z" fill="#F9E813"/>
<path d="M5.93701 11.0823H6.27838V11.765H5.93701V11.0823Z" fill="#F9E813"/>
<path d="M10.7939 10.5361H11.818V11.2189H10.7939V10.5361Z" fill="#F9E813"/>
<path d="M10.2544 10.8093H12.1433V11.1507H10.2544V10.8093Z" fill="#060101"/>
<path d="M10.2544 11.0823H11.2785V11.4236H10.2544V11.0823Z" fill="#F9E813"/>
<path d="M11.334 11.0823H12.3581V11.4236H11.334V11.0823Z" fill="#F9E813"/>
<path d="M10.2544 11.9016H10.9371V12.9257H10.2544V11.9016Z" fill="#F9E813"/>
<path d="M11.6035 11.9016H12.2862V12.9257H11.6035V11.9016Z" fill="#F9E813"/>
<path d="M11.064 11.9016H11.4053V12.9257H11.064V11.9016Z" fill="#F9E813"/>
<path d="M10.2544 11.6284H12.1433V11.9698H10.2544V11.6284Z" fill="#060101"/>
<path d="M10.2544 12.4478H12.1433V12.7891H10.2544V12.4478Z" fill="#060101"/>
<path d="M10.5244 11.3555H10.8658V11.6968H10.5244V11.3555Z" fill="#F9E813"/>
<path d="M11.6035 11.3555H11.9449V11.6968H11.6035V11.3555Z" fill="#F9E813"/>
<path d="M11.064 11.0823H11.4053V11.765H11.064V11.0823Z" fill="#F9E813"/>
<path d="M15.6509 10.5361H16.675V11.2189H15.6509V10.5361Z" fill="#F9E813"/>
<path d="M15.1113 10.8093H17.0002V11.1507H15.1113V10.8093Z" fill="#060101"/>
<path d="M15.1113 11.0823H16.1354V11.4236H15.1113V11.0823Z" fill="#F9E813"/>
<path d="M16.1909 11.0823H17.215V11.4236H16.1909V11.0823Z" fill="#F9E813"/>
<path d="M15.1113 11.9016H15.7941V12.9257H15.1113V11.9016Z" fill="#F9E813"/>
<path d="M16.4604 11.9016H17.1432V12.9257H16.4604V11.9016Z" fill="#F9E813"/>
<path d="M15.9209 11.9016H16.2623V12.9257H15.9209V11.9016Z" fill="#F9E813"/>
<path d="M15.1113 11.6284H17.0002V11.9698H15.1113V11.6284Z" fill="#060101"/>
<path d="M15.1113 12.4478H17.0002V12.7891H15.1113V12.4478Z" fill="#060101"/>
<path d="M15.3813 11.3555H15.7227V11.6968H15.3813V11.3555Z" fill="#F9E813"/>
<path d="M16.4604 11.3555H16.8018V11.6968H16.4604V11.3555Z" fill="#F9E813"/>
<path d="M15.9209 11.0823H16.2623V11.765H15.9209V11.0823Z" fill="#F9E813"/>
<path d="M15.6509 15.4519H16.675V16.1346H15.6509V15.4519Z" fill="#F9E813"/>
<path d="M15.1113 15.7251H17.0002V16.0665H15.1113V15.7251Z" fill="#060101"/>
<path d="M15.1113 15.998H16.1354V16.3394H15.1113V15.998Z" fill="#F9E813"/>
<path d="M16.1909 15.998H17.215V16.3394H16.1909V15.998Z" fill="#F9E813"/>
<path d="M15.1113 16.8174H15.7941V17.8415H15.1113V16.8174Z" fill="#F9E813"/>
<path d="M16.4604 16.8174H17.1432V17.8415H16.4604V16.8174Z" fill="#F9E813"/>
<path d="M15.9209 16.8174H16.2623V17.8415H15.9209V16.8174Z" fill="#F9E813"/>
<path d="M15.1113 16.5442H17.0002V16.8856H15.1113V16.5442Z" fill="#060101"/>
<path d="M15.1113 17.3635H17.0002V17.7049H15.1113V17.3635Z" fill="#060101"/>
<path d="M15.3813 16.2712H15.7227V16.6126H15.3813V16.2712Z" fill="#F9E813"/>
<path d="M16.4604 16.2712H16.8018V16.6126H16.4604V16.2712Z" fill="#F9E813"/>
<path d="M15.9209 15.998H16.2623V16.6808H15.9209V15.998Z" fill="#F9E813"/>
<path d="M5.66699 15.4519H6.69109V16.1346H5.66699V15.4519Z" fill="#F9E813"/>
<path d="M5.12744 15.7251H7.01633V16.0665H5.12744V15.7251Z" fill="#060101"/>
<path d="M5.12744 15.998H6.15154V16.3394H5.12744V15.998Z" fill="#F9E813"/>
<path d="M6.20703 15.998H7.23113V16.3394H6.20703V15.998Z" fill="#F9E813"/>
<path d="M5.12744 16.8174H5.81017V17.8415H5.12744V16.8174Z" fill="#F9E813"/>
<path d="M6.47656 16.8174H7.15929V17.8415H6.47656V16.8174Z" fill="#F9E813"/>
<path d="M5.93701 16.8174H6.27838V17.8415H5.93701V16.8174Z" fill="#F9E813"/>
<path d="M5.12744 16.5442H7.01633V16.8856H5.12744V16.5442Z" fill="#060101"/>
<path d="M5.12744 17.3635H7.01633V17.7049H5.12744V17.3635Z" fill="#060101"/>
<path d="M5.39746 16.2712H5.73883V16.6126H5.39746V16.2712Z" fill="#F9E813"/>
<path d="M6.47656 16.2712H6.81793V16.6126H6.47656V16.2712Z" fill="#F9E813"/>
<path d="M5.93701 15.998H6.27838V16.6808H5.93701V15.998Z" fill="#F9E813"/>
<path d="M6.32373 21.614L6.98201 20.8295L7.50501 21.2684L6.84673 22.0529L6.32373 21.614Z" fill="#F9E813"/>
<path d="M6.18604 22.2029L7.40019 20.7559L7.66169 20.9753L6.44754 22.4223L6.18604 22.2029Z" fill="#060101"/>
<path d="M6.39551 22.3784L7.05378 21.5939L7.31529 21.8133L6.65701 22.5978L6.39551 22.3784Z" fill="#F9E813"/>
<path d="M7.08936 21.5515L7.74763 20.767L8.00913 20.9864L7.35086 21.7709L7.08936 21.5515Z" fill="#F9E813"/>
<path d="M7.02295 22.905L7.4618 22.382L8.2463 23.0403L7.80745 23.5633L7.02295 22.905Z" fill="#F9E813"/>
<path d="M7.89014 21.8716L8.32899 21.3486L9.11349 22.0069L8.67464 22.5299L7.89014 21.8716Z" fill="#F9E813"/>
<path d="M7.54346 22.2849L7.76288 22.0234L8.54739 22.6817L8.32796 22.9432L7.54346 22.2849Z" fill="#F9E813"/>
<path d="M6.81396 22.7295L8.02812 21.2825L8.28962 21.5019L7.07547 22.9489L6.81396 22.7295Z" fill="#060101"/>
<path d="M7.44141 23.2561L8.65556 21.8091L8.91706 22.0286L7.70291 23.4755L7.44141 23.2561Z" fill="#060101"/>
<path d="M6.77832 22.3472L6.99775 22.0857L7.25925 22.3051L7.03982 22.5666L6.77832 22.3472Z" fill="#F9E813"/>
<path d="M7.47168 21.5205L7.69111 21.259L7.95261 21.4784L7.73318 21.7399L7.47168 21.5205Z" fill="#F9E813"/>
<path d="M6.91602 21.7583L7.13544 21.4968L7.65844 21.9357L7.43902 22.1972L6.91602 21.7583Z" fill="#F9E813"/>
<path d="M15.5532 20.9937L16.2115 21.7782L15.6885 22.217L15.0302 21.4325L15.5532 20.9937Z" fill="#F9E813"/>
<path d="M14.9976 20.7559L16.2117 22.2028L15.9502 22.4223L14.7361 20.9753L14.9976 20.7559Z" fill="#060101"/>
<path d="M14.7881 20.9314L15.4464 21.7159L15.1849 21.9353L14.5266 21.1508L14.7881 20.9314Z" fill="#F9E813"/>
<path d="M15.4819 21.7583L16.1402 22.5428L15.8787 22.7622L15.2204 21.9777L15.4819 21.7583Z" fill="#F9E813"/>
<path d="M14.1606 21.458L14.5995 21.981L13.815 22.6393L13.3761 22.1163L14.1606 21.458Z" fill="#F9E813"/>
<path d="M15.0278 22.4917L15.4667 23.0147L14.6822 23.673L14.2433 23.15L15.0278 22.4917Z" fill="#F9E813"/>
<path d="M14.6807 22.0781L14.9001 22.3396L14.1156 22.9979L13.8962 22.7364L14.6807 22.0781Z" fill="#F9E813"/>
<path d="M14.3696 21.2825L15.5838 22.7294L15.3223 22.9489L14.1081 21.5019L14.3696 21.2825Z" fill="#060101"/>
<path d="M13.7422 21.8091L14.9563 23.2561L14.6948 23.4755L13.4807 22.0285L13.7422 21.8091Z" fill="#060101"/>
<path d="M14.7524 21.3137L14.9719 21.5752L14.7104 21.7946L14.4909 21.5331L14.7524 21.3137Z" fill="#F9E813"/>
<path d="M15.4463 22.1404L15.6657 22.4019L15.4042 22.6213L15.1848 22.3598L15.4463 22.1404Z" fill="#F9E813"/>
<path d="M15.3086 21.5515L15.528 21.813L15.005 22.2519L14.7856 21.9904L15.3086 21.5515Z" fill="#F9E813"/>
<path d="M12.1249 13.5403V14.9024C12.0323 15.3713 11.7206 15.6058 11.1896 15.6058C10.6587 15.6058 10.3469 15.3713 10.2544 14.9024V13.5403H12.1249ZM10.7941 14.9057C10.645 14.9057 10.5242 15.028 10.5242 15.1788C10.5242 15.3297 10.645 15.4519 10.7941 15.4519C10.9431 15.4519 11.0639 15.3297 11.0639 15.1788C11.0639 15.028 10.9431 14.9057 10.7941 14.9057ZM11.6036 14.9057C11.4546 14.9057 11.3338 15.028 11.3338 15.1788C11.3338 15.3297 11.4546 15.4519 11.6036 15.4519C11.7526 15.4519 11.8734 15.3297 11.8734 15.1788C11.8734 15.028 11.7526 14.9057 11.6036 14.9057ZM11.1988 14.3596C11.0498 14.3596 10.929 14.4818 10.929 14.6327C10.929 14.7835 11.0498 14.9057 11.1988 14.9057C11.3479 14.9057 11.4687 14.7835 11.4687 14.6327C11.4687 14.4818 11.3479 14.3596 11.1988 14.3596ZM10.7941 13.8134C10.645 13.8134 10.5242 13.9356 10.5242 14.0865C10.5242 14.2373 10.645 14.3596 10.7941 14.3596C10.9431 14.3596 11.0639 14.2373 11.0639 14.0865C11.0639 13.9356 10.9431 13.8134 10.7941 13.8134ZM11.6036 13.8134C11.4546 13.8134 11.3338 13.9356 11.3338 14.0865C11.3338 14.2373 11.4546 14.3596 11.6036 14.3596C11.7526 14.3596 11.8734 14.2373 11.8734 14.0865C11.8734 13.9356 11.7526 13.8134 11.6036 13.8134Z" fill="#013399"/>
<path d="M12.1249 16.5442V17.9063C12.0323 18.3752 11.7206 18.6097 11.1896 18.6097C10.6587 18.6097 10.3469 18.3752 10.2544 17.9063V16.5442H12.1249ZM10.7941 17.9097C10.645 17.9097 10.5242 18.0319 10.5242 18.1827C10.5242 18.3336 10.645 18.4558 10.7941 18.4558C10.9431 18.4558 11.0639 18.3336 11.0639 18.1827C11.0639 18.0319 10.9431 17.9097 10.7941 17.9097ZM11.6036 17.9097C11.4546 17.9097 11.3338 18.0319 11.3338 18.1827C11.3338 18.3336 11.4546 18.4558 11.6036 18.4558C11.7526 18.4558 11.8734 18.3336 11.8734 18.1827C11.8734 18.0319 11.7526 17.9097 11.6036 17.9097ZM11.1988 17.3635C11.0498 17.3635 10.929 17.4857 10.929 17.6366C10.929 17.7874 11.0498 17.9097 11.1988 17.9097C11.3479 17.9097 11.4687 17.7874 11.4687 17.6366C11.4687 17.4857 11.3479 17.3635 11.1988 17.3635ZM10.7941 16.8173C10.645 16.8173 10.5242 16.9395 10.5242 17.0904C10.5242 17.2412 10.645 17.3635 10.7941 17.3635C10.9431 17.3635 11.0639 17.2412 11.0639 17.0904C11.0639 16.9395 10.9431 16.8173 10.7941 16.8173ZM11.6036 16.8173C11.4546 16.8173 11.3338 16.9395 11.3338 17.0904C11.3338 17.2412 11.4546 17.3635 11.6036 17.3635C11.7526 17.3635 11.8734 17.2412 11.8734 17.0904C11.8734 16.9395 11.7526 16.8173 11.6036 16.8173Z" fill="#013399"/>
<path d="M14.5531 16.5442V17.9063C14.4606 18.3752 14.1488 18.6097 13.6179 18.6097C13.0869 18.6097 12.7752 18.3752 12.6826 17.9063V16.5442H14.5531ZM13.2223 17.9097C13.0733 17.9097 12.9525 18.0319 12.9525 18.1827C12.9525 18.3336 13.0733 18.4558 13.2223 18.4558C13.3713 18.4558 13.4921 18.3336 13.4921 18.1827C13.4921 18.0319 13.3713 17.9097 13.2223 17.9097ZM14.0318 17.9097C13.8828 17.9097 13.762 18.0319 13.762 18.1827C13.762 18.3336 13.8828 18.4558 14.0318 18.4558C14.1809 18.4558 14.3017 18.3336 14.3017 18.1827C14.3017 18.0319 14.1809 17.9097 14.0318 17.9097ZM13.6271 17.3635C13.478 17.3635 13.3572 17.4857 13.3572 17.6366C13.3572 17.7874 13.478 17.9097 13.6271 17.9097C13.7761 17.9097 13.8969 17.7874 13.8969 17.6366C13.8969 17.4857 13.7761 17.3635 13.6271 17.3635ZM13.2223 16.8173C13.0733 16.8173 12.9525 16.9395 12.9525 17.0904C12.9525 17.2412 13.0733 17.3635 13.2223 17.3635C13.3713 17.3635 13.4921 17.2412 13.4921 17.0904C13.4921 16.9395 13.3713 16.8173 13.2223 16.8173ZM14.0318 16.8173C13.8828 16.8173 13.762 16.9395 13.762 17.0904C13.762 17.2412 13.8828 17.3635 14.0318 17.3635C14.1809 17.3635 14.3017 17.2412 14.3017 17.0904C14.3017 16.9395 14.1809 16.8173 14.0318 16.8173Z" fill="#013399"/>
<path d="M9.69615 16.5442V17.9063C9.60362 18.3752 9.29187 18.6097 8.76092 18.6097C8.22996 18.6097 7.91822 18.3752 7.82568 17.9063V16.5442H9.69615ZM8.36537 17.9097C8.21634 17.9097 8.09552 18.0319 8.09552 18.1827C8.09552 18.3336 8.21634 18.4558 8.36537 18.4558C8.5144 18.4558 8.63521 18.3336 8.63521 18.1827C8.63521 18.0319 8.5144 17.9097 8.36537 17.9097ZM9.17489 17.9097C9.02586 17.9097 8.90505 18.0319 8.90505 18.1827C8.90505 18.3336 9.02586 18.4558 9.17489 18.4558C9.32392 18.4558 9.44473 18.3336 9.44473 18.1827C9.44473 18.0319 9.32392 17.9097 9.17489 17.9097ZM8.77013 17.3635C8.6211 17.3635 8.50029 17.4857 8.50029 17.6366C8.50029 17.7874 8.6211 17.9097 8.77013 17.9097C8.91916 17.9097 9.03997 17.7874 9.03997 17.6366C9.03997 17.4857 8.91916 17.3635 8.77013 17.3635ZM8.36537 16.8173C8.21634 16.8173 8.09552 16.9395 8.09552 17.0904C8.09552 17.2412 8.21634 17.3635 8.36537 17.3635C8.5144 17.3635 8.63521 17.2412 8.63521 17.0904C8.63521 16.9395 8.5144 16.8173 8.36537 16.8173ZM9.17489 16.8173C9.02586 16.8173 8.90505 16.9395 8.90505 17.0904C8.90505 17.2412 9.02586 17.3635 9.17489 17.3635C9.32392 17.3635 9.44473 17.2412 9.44473 17.0904C9.44473 16.9395 9.32392 16.8173 9.17489 16.8173Z" fill="#013399"/>
<path d="M12.1249 19.5481V20.9102C12.0323 21.3791 11.7206 21.6136 11.1896 21.6136C10.6587 21.6136 10.3469 21.3791 10.2544 20.9102V19.5481H12.1249ZM10.7941 20.9136C10.645 20.9136 10.5242 21.0358 10.5242 21.1866C10.5242 21.3375 10.645 21.4597 10.7941 21.4597C10.9431 21.4597 11.0639 21.3375 11.0639 21.1866C11.0639 21.0358 10.9431 20.9136 10.7941 20.9136ZM11.6036 20.9136C11.4546 20.9136 11.3338 21.0358 11.3338 21.1866C11.3338 21.3375 11.4546 21.4597 11.6036 21.4597C11.7526 21.4597 11.8734 21.3375 11.8734 21.1866C11.8734 21.0358 11.7526 20.9136 11.6036 20.9136ZM11.1988 20.3674C11.0498 20.3674 10.929 20.4896 10.929 20.6405C10.929 20.7913 11.0498 20.9136 11.1988 20.9136C11.3479 20.9136 11.4687 20.7913 11.4687 20.6405C11.4687 20.4896 11.3479 20.3674 11.1988 20.3674ZM10.7941 19.8212C10.645 19.8212 10.5242 19.9435 10.5242 20.0943C10.5242 20.2451 10.645 20.3674 10.7941 20.3674C10.9431 20.3674 11.0639 20.2451 11.0639 20.0943C11.0639 19.9435 10.9431 19.8212 10.7941 19.8212ZM11.6036 19.8212C11.4546 19.8212 11.3338 19.9435 11.3338 20.0943C11.3338 20.2451 11.4546 20.3674 11.6036 20.3674C11.7526 20.3674 11.8734 20.2451 11.8734 20.0943C11.8734 19.9435 11.7526 19.8212 11.6036 19.8212Z" fill="#013399"/>
</g>
</g>
<mask id="mask13_133_460" style="mask-type:alpha" maskUnits="userSpaceOnUse" x="0" y="0" width="34" height="35">
<path d="M17 34.5C26.3888 34.5 34 26.8888 34 17.5C34 8.11116 26.3888 0.5 17 0.5C7.61116 0.5 0 8.11116 0 17.5C0 26.8888 7.61116 34.5 17 34.5Z" fill="white"/>
</mask>
<g mask="url(#mask13_133_460)">
<path d="M37.9668 0.5H-3.9665C-4.90539 0.5 -5.6665 1.26112 -5.6665 2.2V32.8C-5.6665 33.7389 -4.90539 34.5 -3.9665 34.5H37.9668C38.9057 34.5 39.6668 33.7389 39.6668 32.8V2.2C39.6668 1.26112 38.9057 0.5 37.9668 0.5Z" fill="black"/>
<mask id="mask14_133_460" style="mask-type:alpha" maskUnits="userSpaceOnUse" x="-6" y="0" width="46" height="35">
<path d="M37.9668 0.5H-3.9665C-4.90539 0.5 -5.6665 1.26112 -5.6665 2.2V32.8C-5.6665 33.7389 -4.90539 34.5 -3.9665 34.5H37.9668C38.9057 34.5 39.6668 33.7389 39.6668 32.8V2.2C39.6668 1.26112 38.9057 0.5 37.9668 0.5Z" fill="white"/>
</mask>
<g mask="url(#mask14_133_460)">
<mask id="mask15_133_460" style="mask-type:alpha" maskUnits="userSpaceOnUse" x="-6" y="0" width="46" height="35">
<path d="M39.6668 0.5H-5.6665V34.5H39.6668V0.5Z" fill="white"/>
</mask>
<g mask="url(#mask15_133_460)">
<path d="M39.6668 0.5H-5.6665V34.5H39.6668V0.5Z" fill="#009933"/>
<mask id="mask16_133_460" style="mask-type:alpha" maskUnits="userSpaceOnUse" x="-6" y="0" width="46" height="35">
<path d="M39.6668 0.5H-5.6665V34.5H39.6668V0.5Z" fill="white"/>
</mask>
<g mask="url(#mask16_133_460)">
<path d="M16.8965 5.74731L34.1824 17.7939L16.6613 29.0759L-0.270508 17.5604L16.8965 5.74731Z" fill="black"/>
<path fill-rule="evenodd" clip-rule="evenodd" d="M16.8965 5.74731L34.1824 17.7939L16.6613 29.0759L-0.270508 17.5604L16.8965 5.74731Z" fill="#FFD221"/>
<path fill-rule="evenodd" clip-rule="evenodd" d="M16.8965 5.74731L34.1824 17.7939L16.6613 29.0759L-0.270508 17.5604L16.8965 5.74731Z" fill="url(#paint0_linear_133_460)"/>
<path d="M17.0003 24.8666C20.9123 24.8666 24.0837 21.6953 24.0837 17.7833C24.0837 13.8713 20.9123 10.7 17.0003 10.7C13.0883 10.7 9.91699 13.8713 9.91699 17.7833C9.91699 21.6953 13.0883 24.8666 17.0003 24.8666Z" fill="#2E42A5"/>
<mask id="mask17_133_460" style="mask-type:alpha" maskUnits="userSpaceOnUse" x="9" y="10" width="16" height="15">
<path d="M17.0003 24.8666C20.9123 24.8666 24.0837 21.6953 24.0837 17.7833C24.0837 13.8713 20.9123 10.7 17.0003 10.7C13.0883 10.7 9.91699 13.8713 9.91699 17.7833C9.91699 21.6953 13.0883 24.8666 17.0003 24.8666Z" fill="white"/>
</mask>
<g mask="url(#mask17_133_460)">
<path d="M14.7053 21.1408L14.3889 21.3071L14.4494 20.9548L14.1934 20.7052L14.5471 20.6538L14.7053 20.3333L14.8636 20.6538L15.2173 20.7052L14.9613 20.9548L15.0218 21.3071L14.7053 21.1408Z" fill="#F7FCFF"/>
</g>
<mask id="mask18_133_460" style="mask-type:alpha" maskUnits="userSpaceOnUse" x="9" y="10" width="16" height="15">
<path d="M17.0003 24.8666C20.9123 24.8666 24.0837 21.6953 24.0837 17.7833C24.0837 13.8713 20.9123 10.7 17.0003 10.7C13.0883 10.7 9.91699 13.8713 9.91699 17.7833C9.91699 21.6953 13.0883 24.8666 17.0003 24.8666Z" fill="white"/>
</mask>
<g mask="url(#mask18_133_460)">
<path d="M17.5388 21.1408L17.2224 21.3071L17.2828 20.9548L17.0269 20.7052L17.3806 20.6538L17.5388 20.3333L17.6971 20.6538L18.0508 20.7052L17.7948 20.9548L17.8553 21.3071L17.5388 21.1408Z" fill="#F7FCFF"/>
</g>
<mask id="mask19_133_460" style="mask-type:alpha" maskUnits="userSpaceOnUse" x="9" y="10" width="16" height="15">
<path d="M17.0003 24.8666C20.9123 24.8666 24.0837 21.6953 24.0837 17.7833C24.0837 13.8713 20.9123 10.7 17.0003 10.7C13.0883 10.7 9.91699 13.8713 9.91699 17.7833C9.91699 21.6953 13.0883 24.8666 17.0003 24.8666Z" fill="white"/>
</mask>
<g mask="url(#mask19_133_460)">
<path d="M17.5388 22.8407L17.2224 23.0071L17.2828 22.6547L17.0269 22.4052L17.3806 22.3538L17.5388 22.0332L17.6971 22.3538L18.0508 22.4052L17.7948 22.6547L17.8553 23.0071L17.5388 22.8407Z" fill="#F7FCFF"/>
</g>
<mask id="mask20_133_460" style="mask-type:alpha" maskUnits="userSpaceOnUse" x="9" y="10" width="16" height="15">
<path d="M17.0003 24.8666C20.9123 24.8666 24.0837 21.6953 24.0837 17.7833C24.0837 13.8713 20.9123 10.7 17.0003 10.7C13.0883 10.7 9.91699 13.8713 9.91699 17.7833C9.91699 21.6953 13.0883 24.8666 17.0003 24.8666Z" fill="white"/>
</mask>
<g mask="url(#mask20_133_460)">
<path d="M16.1218 16.8908L15.8054 17.0571L15.8659 16.7048L15.6099 16.4552L15.9636 16.4038L16.1218 16.0833L16.2801 16.4038L16.6338 16.4552L16.3778 16.7048L16.4383 17.0571L16.1218 16.8908Z" fill="#F7FCFF"/>
</g>
<mask id="mask21_133_460" style="mask-type:alpha" maskUnits="userSpaceOnUse" x="9" y="10" width="16" height="15">
<path d="M17.0003 24.8666C20.9123 24.8666 24.0837 21.6953 24.0837 17.7833C24.0837 13.8713 20.9123 10.7 17.0003 10.7C13.0883 10.7 9.91699 13.8713 9.91699 17.7833C9.91699 21.6953 13.0883 24.8666 17.0003 24.8666Z" fill="white"/>
</mask>
<g mask="url(#mask21_133_460)">
<path d="M16.1218 19.724L15.8054 19.8904L15.8659 19.538L15.6099 19.2885L15.9636 19.2371L16.1218 18.9165L16.2801 19.2371L16.6338 19.2885L16.3778 19.538L16.4383 19.8904L16.1218 19.724Z" fill="#F7FCFF"/>
</g>
<mask id="mask22_133_460" style="mask-type:alpha" maskUnits="userSpaceOnUse" x="9" y="10" width="16" height="15">
<path d="M17.0003 24.8666C20.9123 24.8666 24.0837 21.6953 24.0837 17.7833C24.0837 13.8713 20.9123 10.7 17.0003 10.7C13.0883 10.7 9.91699 13.8713 9.91699 17.7833C9.91699 21.6953 13.0883 24.8666 17.0003 24.8666Z" fill="white"/>
</mask>
<g mask="url(#mask22_133_460)">
<path d="M14.1385 18.3075L13.822 18.4739L13.8825 18.1215L13.6265 17.872L13.9802 17.8206L14.1385 17.5L14.2967 17.8206L14.6504 17.872L14.3944 18.1215L14.4549 18.4739L14.1385 18.3075Z" fill="#F7FCFF"/>
</g>
<mask id="mask23_133_460" style="mask-type:alpha" maskUnits="userSpaceOnUse" x="9" y="10" width="16" height="15">
<path d="M17.0003 24.8666C20.9123 24.8666 24.0837 21.6953 24.0837 17.7833C24.0837 13.8713 20.9123 10.7 17.0003 10.7C13.0883 10.7 9.91699 13.8713 9.91699 17.7833C9.91699 21.6953 13.0883 24.8666 17.0003 24.8666Z" fill="white"/>
</mask>
<g mask="url(#mask23_133_460)">
<path d="M12.1551 19.4408L11.8386 19.6072L11.8991 19.2548L11.6431 19.0053L11.9968 18.9539L12.1551 18.6333L12.3133 18.9539L12.667 19.0053L12.411 19.2548L12.4715 19.6072L12.1551 19.4408Z" fill="#F7FCFF"/>
</g>
<mask id="mask24_133_460" style="mask-type:alpha" maskUnits="userSpaceOnUse" x="9" y="10" width="16" height="15">
<path d="M17.0003 24.8666C20.9123 24.8666 24.0837 21.6953 24.0837 17.7833C24.0837 13.8713 20.9123 10.7 17.0003 10.7C13.0883 10.7 9.91699 13.8713 9.91699 17.7833C9.91699 21.6953 13.0883 24.8666 17.0003 24.8666Z" fill="white"/>
</mask>
<g mask="url(#mask24_133_460)">
<path d="M18.6721 14.6242L18.3557 14.7905L18.4161 14.4382L18.1602 14.1886L18.5139 14.1372L18.6721 13.8167L18.8304 14.1372L19.1841 14.1886L18.9281 14.4382L18.9886 14.7905L18.6721 14.6242Z" fill="#F7FCFF"/>
</g>
<mask id="mask25_133_460" style="mask-type:alpha" maskUnits="userSpaceOnUse" x="9" y="10" width="16" height="15">
<path d="M17.0003 24.8666C20.9123 24.8666 24.0837 21.6953 24.0837 17.7833C24.0837 13.8713 20.9123 10.7 17.0003 10.7C13.0883 10.7 9.91699 13.8713 9.91699 17.7833C9.91699 21.6953 13.0883 24.8666 17.0003 24.8666Z" fill="white"/>
</mask>
<g mask="url(#mask25_133_460)">
<path d="M8.39404 16.0792L8.60708 13.2539C15.4042 13.7664 20.7689 16.0013 24.6339 19.9768L22.6024 21.9518C19.2525 18.5062 14.5389 16.5426 8.39404 16.0792Z" fill="#F7FCFF"/>
</g>
<mask id="mask26_133_460" style="mask-type:alpha" maskUnits="userSpaceOnUse" x="9" y="10" width="16" height="15">
<path d="M17.0003 24.8666C20.9123 24.8666 24.0837 21.6953 24.0837 17.7833C24.0837 13.8713 20.9123 10.7 17.0003 10.7C13.0883 10.7 9.91699 13.8713 9.91699 17.7833C9.91699 21.6953 13.0883 24.8666 17.0003 24.8666Z" fill="white"/>
</mask>
<g mask="url(#mask26_133_460)">
<path d="M11.7437 15.5205L11.8166 14.8159C16.1983 15.2698 19.9566 16.9481 23.0802 19.8472L22.5983 20.3664C19.5884 17.5728 15.9739 15.9587 11.7437 15.5205Z" fill="#009933"/>
</g>
</g>
</g>
</g>
<mask id="mask27_133_460" style="mask-type:alpha" maskUnits="userSpaceOnUse" x="-6" y="0" width="46" height="35">
<path d="M37.9668 0.5H-3.9665C-4.90539 0.5 -5.6665 1.26112 -5.6665 2.2V32.8C-5.6665 33.7389 -4.90539 34.5 -3.9665 34.5H37.9668C38.9057 34.5 39.6668 33.7389 39.6668 32.8V2.2C39.6668 1.26112 38.9057 0.5 37.9668 0.5Z" fill="white"/>
</mask>
<g mask="url(#mask27_133_460)">
<path d="M37.2587 1.20825H-3.25801C-4.19689 1.20825 -4.95801 1.96937 -4.95801 2.90825V32.0916C-4.95801 33.0305 -4.19689 33.7916 -3.25801 33.7916H37.2587C38.1975 33.7916 38.9587 33.0305 38.9587 32.0916V2.90825C38.9587 1.96937 38.1975 1.20825 37.2587 1.20825Z" stroke="black" stroke-opacity="0.1"/>
</g>
</g>
</g>
<defs>
<linearGradient id="paint0_linear_133_460" x1="16.956" y1="29.0759" x2="16.956" y2="5.74731" gradientUnits="userSpaceOnUse">
<stop stop-color="#FFC600"/>
<stop offset="1" stop-color="#FFDE42"/>
</linearGradient>
<clipPath id="clip0_133_460">
<rect width="34" height="34" fill="white" transform="translate(0 0.5)"/>
</clipPath>
</defs>
</svg>
