<svg width="73" height="73" viewBox="0 0 73 73" fill="none" xmlns="http://www.w3.org/2000/svg">
<g clip-path="url(#clip0_133_382)">
<path d="M61.9877 67.6467C56.5788 67.6467 52.1987 66.0066 52.1987 63.9758V68.8703C52.1987 70.9011 56.5788 72.5412 61.9877 72.5412C67.396 72.5412 71.7767 70.9011 71.7767 68.8703V63.9758C71.7767 66.0066 67.396 67.6467 61.9877 67.6467Z" fill="#FF9811"/>
<path d="M61.9877 57.8579C56.5788 57.8579 52.1987 56.2178 52.1987 54.187V59.0815C52.1987 61.1123 56.5788 62.7524 61.9877 62.7524C67.396 62.7524 71.7767 61.1123 71.7767 59.0815V54.187C71.7767 56.2178 67.396 57.8579 61.9877 57.8579Z" fill="#FFA733"/>
<path d="M61.9877 52.9633C56.5788 52.9633 52.1987 51.3233 52.1987 49.2925V54.187C52.1987 56.2178 56.5788 57.8578 61.9877 57.8578C67.396 57.8578 71.7767 56.2178 71.7767 54.187V49.2925C71.7767 51.3233 67.396 52.9633 61.9877 52.9633Z" fill="#FFB655"/>
<path d="M61.9877 62.7524C56.5788 62.7524 52.1987 61.1123 52.1987 59.0815V63.976C52.1987 66.0068 56.5788 67.6469 61.9877 67.6469C67.396 67.6469 71.7767 66.0068 71.7767 63.976V59.0815C71.7767 61.1123 67.396 62.7524 61.9877 62.7524Z" fill="#FFB655"/>
<path d="M61.9877 38.2797C56.5788 38.2797 52.1987 36.6397 52.1987 34.6089V39.5034C52.1987 41.5342 56.5788 43.1742 61.9877 43.1742C67.396 43.1742 71.7767 41.5342 71.7767 39.5034V34.6089C71.7767 36.6397 67.396 38.2797 61.9877 38.2797Z" fill="#FFC477"/>
<path d="M61.9877 48.0688C56.5788 48.0688 52.1987 46.4288 52.1987 44.3979V49.2924C52.1987 51.3232 56.5788 52.9633 61.9877 52.9633C67.396 52.9633 71.7767 51.3232 71.7767 49.2924V44.3979C71.7767 46.4288 67.396 48.0688 61.9877 48.0688Z" fill="#FFC477"/>
<path d="M61.9877 43.1743C56.5788 43.1743 52.1987 41.5342 52.1987 39.5034V44.3979C52.1987 46.4287 56.5788 48.0688 61.9877 48.0688C67.396 48.0688 71.7767 46.4287 71.7767 44.3979V39.5034C71.7767 41.5342 67.396 43.1743 61.9877 43.1743Z" fill="#FFB655"/>
<path d="M61.9877 33.3855C56.5818 33.3855 52.1987 31.7418 52.1987 29.7146V34.6091C52.1987 36.6399 56.5788 38.2799 61.9877 38.2799C67.396 38.2799 71.7767 36.6399 71.7767 34.6091V29.7146C71.7767 31.7418 67.3936 33.3855 61.9877 33.3855Z" fill="#FFB655"/>
<path d="M10.5956 72.5412C16.0039 72.5412 20.3846 70.9011 20.3846 68.8703V63.9758C20.3846 66.0066 16.0039 67.6467 10.5956 67.6467C5.1867 67.6467 0.806641 66.0066 0.806641 63.9758V68.8703C0.806641 70.9011 5.1867 72.5412 10.5956 72.5412Z" fill="#FF6243"/>
<path d="M36.2914 62.7524C30.8825 62.7524 26.5024 61.1123 26.5024 59.0815V63.976C26.5024 66.0068 30.8825 67.6469 36.2914 67.6469C41.6997 67.6469 46.0804 66.0068 46.0804 63.976V59.0815C46.0804 61.1123 41.6997 62.7524 36.2914 62.7524Z" fill="#FFA733"/>
<path d="M36.2914 57.8579C30.8825 57.8579 26.5024 56.2178 26.5024 54.187V59.0815C26.5024 61.1123 30.8825 62.7524 36.2914 62.7524C41.6997 62.7524 46.0804 61.1123 46.0804 59.0815V54.187C46.0804 56.2178 41.6997 57.8579 36.2914 57.8579Z" fill="#FF9811"/>
<path d="M36.2914 48.0688C30.8855 48.0688 26.5024 46.4252 26.5024 44.3979V49.2924C26.5024 51.3232 30.8825 52.9633 36.2914 52.9633C41.6997 52.9633 46.0804 51.3232 46.0804 49.2924V44.3979C46.0804 46.4252 41.6973 48.0688 36.2914 48.0688Z" fill="#FFB655"/>
<path d="M36.2914 52.9633C30.8825 52.9633 26.5024 51.3233 26.5024 49.2925V54.187C26.5024 56.2178 30.8825 57.8578 36.2914 57.8578C41.6997 57.8578 46.0804 56.2178 46.0804 54.187V49.2925C46.0804 51.3233 41.6997 52.9633 36.2914 52.9633Z" fill="#FFA733"/>
<path d="M10.5956 67.6469C16.0039 67.6469 20.3846 66.0068 20.3846 63.976V59.0815C20.3846 61.1123 16.0039 62.7524 10.5956 62.7524C5.1867 62.7524 0.806641 61.1123 0.806641 59.0815V63.976C0.806641 66.0068 5.1867 67.6469 10.5956 67.6469Z" fill="#FF9478"/>
<path d="M10.5956 62.7524C16.0039 62.7524 20.3846 61.1123 20.3846 59.0815V54.187C20.3846 56.2142 16.0015 57.8579 10.5956 57.8579C5.18969 57.8579 0.806641 56.2142 0.806641 54.187V59.0815C0.806641 61.1123 5.1867 62.7524 10.5956 62.7524Z" fill="#FF7956"/>
<path d="M36.2914 67.6467C30.8825 67.6467 26.5024 66.0066 26.5024 63.9758V68.8703C26.5024 70.9011 30.8825 72.5412 36.2914 72.5412C41.6997 72.5412 46.0804 70.9011 46.0804 68.8703V63.9758C46.0804 66.0066 41.6997 67.6467 36.2914 67.6467Z" fill="#FF9811"/>
<path d="M20.3846 54.187C20.3846 52.1598 16.0015 50.5161 10.5956 50.5161C5.18909 50.5161 0.806641 52.1598 0.806641 54.187C0.806641 56.2142 5.18909 57.8578 10.5956 57.8578C16.0015 57.8578 20.3846 56.2142 20.3846 54.187Z" fill="#FF9478"/>
<path d="M46.0804 44.3979C46.0804 42.3707 41.6973 40.7271 36.2914 40.7271C30.8849 40.7271 26.5024 42.3707 26.5024 44.3979C26.5024 46.4251 30.8849 48.0688 36.2914 48.0688C41.6973 48.0688 46.0804 46.4251 46.0804 44.3979Z" fill="#FFA733"/>
<path d="M71.7767 29.7146C71.7767 27.6873 67.3936 26.0437 61.9877 26.0437C56.5812 26.0437 52.1987 27.6873 52.1987 29.7146C52.1987 31.7418 56.5812 33.3854 61.9877 33.3854C67.3936 33.3854 71.7767 31.7418 71.7767 29.7146Z" fill="#FFA733"/>
<path d="M59.5404 0.347656V2.7949H68.8227L45.5739 26.0437H19.9245L0 43.4767L1.61257 45.3193L20.8446 28.4909H46.5872L70.553 4.52517V13.8075H73.0002V0.347656H59.5404Z" fill="#5EAC24"/>
</g>
<defs>
<clipPath id="clip0_133_382">
<rect width="73" height="73" fill="white"/>
</clipPath>
</defs>
</svg>
