<svg width="34" height="35" viewBox="0 0 34 35" fill="none" xmlns="http://www.w3.org/2000/svg">
<g clip-path="url(#clip0_133_429)">
<mask id="mask0_133_429" style="mask-type:alpha" maskUnits="userSpaceOnUse" x="0" y="0" width="34" height="35">
<path d="M17 34.5C26.3888 34.5 34 26.8888 34 17.5C34 8.11116 26.3888 0.5 17 0.5C7.61116 0.5 0 8.11116 0 17.5C0 26.8888 7.61116 34.5 17 34.5Z" fill="white"/>
</mask>
<g mask="url(#mask0_133_429)">
<mask id="mask1_133_429" style="mask-type:alpha" maskUnits="userSpaceOnUse" x="-6" y="0" width="46" height="35">
<path d="M39.0998 0.5H-5.9502V34.5H39.0998V0.5Z" fill="white"/>
</mask>
<g mask="url(#mask1_133_429)">
<path fill-rule="evenodd" clip-rule="evenodd" d="M-5.9502 0.5H39.0998V34.5H-5.9502V0.5Z" fill="#F7FCFF"/>
<path d="M39.0998 21.2778H-5.9502V24.1112H39.0998V21.2778Z" fill="#E31D1C"/>
<path d="M39.0998 26.4722H-5.9502V29.3055H39.0998V26.4722Z" fill="#E31D1C"/>
<path d="M39.0998 10.8889H-5.9502V13.7222H39.0998V10.8889Z" fill="#E31D1C"/>
<path d="M39.0998 31.6667H-5.9502V34.5001H39.0998V31.6667Z" fill="#E31D1C"/>
<path d="M39.0998 16.0833H-5.9502V18.9166H39.0998V16.0833Z" fill="#E31D1C"/>
<path d="M39.0998 0.5H-5.9502V3.33333H39.0998V0.5Z" fill="#E31D1C"/>
<path d="M39.0998 5.69434H-5.9502V8.52767H39.0998V5.69434Z" fill="#E31D1C"/>
<path d="M22.2061 0.5H-5.9502V18.9167H22.2061V0.5Z" fill="#2E42A5"/>
<path fill-rule="evenodd" clip-rule="evenodd" d="M-3.52724 13.5743L-3.06102 14.6213H-2.05041L-2.84447 15.4344L-2.53706 16.7173L-3.52582 15.9964L-4.54772 16.7173L-4.20271 15.4344L-5.11035 14.6213H-3.92485L-3.52724 13.5743ZM2.10401 13.5743L2.57023 14.6213H3.58084L2.78678 15.4344L3.09419 16.7173L2.10543 15.9964L1.08353 16.7173L1.42854 15.4344L0.520898 14.6213H1.7064L2.10401 13.5743ZM7.73526 13.5743L8.20148 14.6213H9.21209L8.41803 15.4344L8.72544 16.7173L7.73668 15.9964L6.71478 16.7173L7.05979 15.4344L6.15215 14.6213H7.33765L7.73526 13.5743ZM13.3665 13.5743L13.8327 14.6213H14.8433L14.0493 15.4344L14.3567 16.7173L13.3679 15.9964L12.346 16.7173L12.691 15.4344L11.7834 14.6213H12.9689L13.3665 13.5743ZM18.9978 13.5743L19.464 14.6213H20.4746L19.6805 15.4344L19.9879 16.7173L18.9992 15.9964L17.9773 16.7173L18.3223 15.4344L17.4146 14.6213H18.6001L18.9978 13.5743ZM-0.711618 10.741L-0.245391 11.788H0.765215L-0.028842 12.601L0.27857 13.884L-0.71019 13.163L-1.73209 13.884L-1.38709 12.601L-2.29473 11.788H-1.10923L-0.711618 10.741ZM4.91963 10.741L5.38586 11.788H6.39646L5.60241 12.601L5.90982 13.884L4.92106 13.163L3.89916 13.884L4.24416 12.601L3.33652 11.788H4.52202L4.91963 10.741ZM10.5509 10.741L11.0171 11.788H12.0277L11.2337 12.601L11.5411 13.884L10.5523 13.163L9.53041 13.884L9.87541 12.601L8.96777 11.788H10.1533L10.5509 10.741ZM16.1821 10.741L16.6484 11.788H17.659L16.8649 12.601L17.1723 13.884L16.1836 13.163L15.1617 13.884L15.5067 12.601L14.599 11.788H15.7845L16.1821 10.741ZM7.73526 7.90763L8.20148 8.95465H9.21209L8.41803 9.76769L8.72544 11.0506L7.73668 10.3297L6.71478 11.0506L7.05979 9.76769L6.15215 8.95465H7.33765L7.73526 7.90763ZM13.3665 7.90763L13.8327 8.95465H14.8433L14.0493 9.76769L14.3567 11.0506L13.3679 10.3297L12.346 11.0506L12.691 9.76769L11.7834 8.95465H12.9689L13.3665 7.90763ZM-3.52724 7.90763L-3.06102 8.95465H-2.05041L-2.84447 9.76769L-2.53706 11.0506L-3.52582 10.3297L-4.54772 11.0506L-4.20271 9.76769L-5.11035 8.95465H-3.92485L-3.52724 7.90763ZM2.10401 7.90763L2.57023 8.95465H3.58084L2.78678 9.76769L3.09419 11.0506L2.10543 10.3297L1.08353 11.0506L1.42854 9.76769L0.520898 8.95465H1.7064L2.10401 7.90763ZM18.9978 7.90763L19.464 8.95465H20.4746L19.6805 9.76769L19.9879 11.0506L18.9992 10.3297L17.9773 11.0506L18.3223 9.76769L17.4146 8.95465H18.6001L18.9978 7.90763ZM-0.711618 5.0743L-0.245391 6.12131H0.765215L-0.028842 6.93435L0.27857 8.2173L-0.71019 7.49638L-1.73209 8.2173L-1.38709 6.93435L-2.29473 6.12131H-1.10923L-0.711618 5.0743ZM4.91963 5.0743L5.38586 6.12131H6.39646L5.60241 6.93435L5.90982 8.2173L4.92106 7.49638L3.89916 8.2173L4.24416 6.93435L3.33652 6.12131H4.52202L4.91963 5.0743ZM10.5509 5.0743L11.0171 6.12131H12.0277L11.2337 6.93435L11.5411 8.2173L10.5523 7.49638L9.53041 8.2173L9.87541 6.93435L8.96777 6.12131H10.1533L10.5509 5.0743ZM16.1821 5.0743L16.6484 6.12131H17.659L16.8649 6.93435L17.1723 8.2173L16.1836 7.49638L15.1617 8.2173L15.5067 6.93435L14.599 6.12131H15.7845L16.1821 5.0743ZM-3.52724 2.24097L-3.06102 3.28798H-2.05041L-2.84447 4.10102L-2.53706 5.38397L-3.52582 4.66304L-4.54772 5.38397L-4.20271 4.10102L-5.11035 3.28798H-3.92485L-3.52724 2.24097ZM2.10401 2.24097L2.57023 3.28798H3.58084L2.78678 4.10102L3.09419 5.38397L2.10543 4.66304L1.08353 5.38397L1.42854 4.10102L0.520898 3.28798H1.7064L2.10401 2.24097ZM7.73526 2.24097L8.20148 3.28798H9.21209L8.41803 4.10102L8.72544 5.38397L7.73668 4.66304L6.71478 5.38397L7.05979 4.10102L6.15215 3.28798H7.33765L7.73526 2.24097ZM13.3665 2.24097L13.8327 3.28798H14.8433L14.0493 4.10102L14.3567 5.38397L13.3679 4.66304L12.346 5.38397L12.691 4.10102L11.7834 3.28798H12.9689L13.3665 2.24097ZM18.9978 2.24097L19.464 3.28798H20.4746L19.6805 4.10102L19.9879 5.38397L18.9992 4.66304L17.9773 5.38397L18.3223 4.10102L17.4146 3.28798H18.6001L18.9978 2.24097Z" fill="#F7FCFF"/>
</g>
</g>
</g>
<defs>
<clipPath id="clip0_133_429">
<rect width="34" height="34" fill="white" transform="translate(0 0.5)"/>
</clipPath>
</defs>
</svg>
